<mxfile host="Electron" agent="Mozilla/5.0 (Windows NT 10.0; Win64; x64) AppleWebKit/537.36 (KHTML, like Gecko) draw.io/27.0.9 Chrome/134.0.6998.205 Electron/35.4.0 Safari/537.36" version="27.0.9">
  <diagram name="Page-1" id="ePmeiAxrrtv847M6QSjW">
    <mxGraphModel dx="854" dy="435" grid="1" gridSize="10" guides="1" tooltips="1" connect="1" arrows="1" fold="1" page="1" pageScale="1" pageWidth="827" pageHeight="1169" math="0" shadow="0">
      <root>
        <mxCell id="0" />
        <mxCell id="1" parent="0" />
        <mxCell id="FcxPhR3n-TihV3jNZaZI-44" style="edgeStyle=orthogonalEdgeStyle;rounded=0;orthogonalLoop=1;jettySize=auto;html=1;entryX=0.5;entryY=1;entryDx=0;entryDy=0;" parent="1" source="FcxPhR3n-TihV3jNZaZI-1" target="FcxPhR3n-TihV3jNZaZI-43" edge="1">
          <mxGeometry relative="1" as="geometry" />
        </mxCell>
        <mxCell id="FcxPhR3n-TihV3jNZaZI-1" value="АБС" style="rounded=1;whiteSpace=wrap;html=1;" parent="1" vertex="1">
          <mxGeometry x="285" y="610" width="240" height="160" as="geometry" />
        </mxCell>
        <mxCell id="FcxPhR3n-TihV3jNZaZI-16" style="edgeStyle=orthogonalEdgeStyle;rounded=0;orthogonalLoop=1;jettySize=auto;html=1;entryX=0.5;entryY=0;entryDx=0;entryDy=0;" parent="1" source="FcxPhR3n-TihV3jNZaZI-4" target="FcxPhR3n-TihV3jNZaZI-10" edge="1">
          <mxGeometry relative="1" as="geometry" />
        </mxCell>
        <mxCell id="FcxPhR3n-TihV3jNZaZI-17" style="edgeStyle=orthogonalEdgeStyle;rounded=0;orthogonalLoop=1;jettySize=auto;html=1;entryX=0.5;entryY=0;entryDx=0;entryDy=0;" parent="1" source="FcxPhR3n-TihV3jNZaZI-4" target="FcxPhR3n-TihV3jNZaZI-6" edge="1">
          <mxGeometry relative="1" as="geometry" />
        </mxCell>
        <mxCell id="izAX0C8F-F5LqZ6X57Kr-2" style="edgeStyle=orthogonalEdgeStyle;rounded=0;orthogonalLoop=1;jettySize=auto;html=1;entryX=0;entryY=0.5;entryDx=0;entryDy=0;" edge="1" parent="1" source="FcxPhR3n-TihV3jNZaZI-4" target="izAX0C8F-F5LqZ6X57Kr-1">
          <mxGeometry relative="1" as="geometry">
            <Array as="points">
              <mxPoint x="390" y="60" />
            </Array>
          </mxGeometry>
        </mxCell>
        <mxCell id="izAX0C8F-F5LqZ6X57Kr-4" value="Получение&lt;div&gt;маркетинговой&amp;nbsp;&lt;/div&gt;&lt;div&gt;информации&lt;/div&gt;" style="edgeLabel;html=1;align=center;verticalAlign=middle;resizable=0;points=[];" vertex="1" connectable="0" parent="izAX0C8F-F5LqZ6X57Kr-2">
          <mxGeometry x="-0.4314" y="2" relative="1" as="geometry">
            <mxPoint as="offset" />
          </mxGeometry>
        </mxCell>
        <mxCell id="FcxPhR3n-TihV3jNZaZI-4" value="" style="shape=actor;whiteSpace=wrap;html=1;" parent="1" vertex="1">
          <mxGeometry x="370" y="130" width="40" height="60" as="geometry" />
        </mxCell>
        <mxCell id="FcxPhR3n-TihV3jNZaZI-5" value="Клиент" style="text;html=1;align=center;verticalAlign=middle;whiteSpace=wrap;rounded=0;" parent="1" vertex="1">
          <mxGeometry x="370" y="190" width="40" height="20" as="geometry" />
        </mxCell>
        <mxCell id="FcxPhR3n-TihV3jNZaZI-41" style="edgeStyle=orthogonalEdgeStyle;rounded=0;orthogonalLoop=1;jettySize=auto;html=1;entryX=0.5;entryY=0;entryDx=0;entryDy=0;" parent="1" source="FcxPhR3n-TihV3jNZaZI-6" target="FcxPhR3n-TihV3jNZaZI-1" edge="1">
          <mxGeometry relative="1" as="geometry">
            <Array as="points">
              <mxPoint x="405" y="300" />
            </Array>
          </mxGeometry>
        </mxCell>
        <mxCell id="FcxPhR3n-TihV3jNZaZI-6" value="" style="shape=actor;whiteSpace=wrap;html=1;" parent="1" vertex="1">
          <mxGeometry x="255" y="270" width="40" height="60" as="geometry" />
        </mxCell>
        <mxCell id="FcxPhR3n-TihV3jNZaZI-27" style="edgeStyle=orthogonalEdgeStyle;rounded=0;orthogonalLoop=1;jettySize=auto;html=1;entryX=0.5;entryY=0;entryDx=0;entryDy=0;" parent="1" source="FcxPhR3n-TihV3jNZaZI-7" target="FcxPhR3n-TihV3jNZaZI-26" edge="1">
          <mxGeometry relative="1" as="geometry" />
        </mxCell>
        <mxCell id="FcxPhR3n-TihV3jNZaZI-7" value="Front-офис оператор" style="text;html=1;align=center;verticalAlign=middle;whiteSpace=wrap;rounded=0;" parent="1" vertex="1">
          <mxGeometry x="240" y="330" width="70" height="30" as="geometry" />
        </mxCell>
        <mxCell id="izAX0C8F-F5LqZ6X57Kr-13" style="edgeStyle=orthogonalEdgeStyle;rounded=0;orthogonalLoop=1;jettySize=auto;html=1;entryX=0.5;entryY=1;entryDx=0;entryDy=0;" edge="1" parent="1" source="FcxPhR3n-TihV3jNZaZI-8" target="izAX0C8F-F5LqZ6X57Kr-11">
          <mxGeometry relative="1" as="geometry" />
        </mxCell>
        <mxCell id="FcxPhR3n-TihV3jNZaZI-8" value="" style="shape=actor;whiteSpace=wrap;html=1;" parent="1" vertex="1">
          <mxGeometry x="70" y="690" width="40" height="60" as="geometry" />
        </mxCell>
        <mxCell id="FcxPhR3n-TihV3jNZaZI-9" value="Оператор кредитования" style="text;html=1;align=center;verticalAlign=middle;whiteSpace=wrap;rounded=0;" parent="1" vertex="1">
          <mxGeometry x="47.5" y="750" width="85" height="30" as="geometry" />
        </mxCell>
        <mxCell id="FcxPhR3n-TihV3jNZaZI-10" value="" style="shape=actor;whiteSpace=wrap;html=1;" parent="1" vertex="1">
          <mxGeometry x="640" y="260" width="40" height="60" as="geometry" />
        </mxCell>
        <mxCell id="FcxPhR3n-TihV3jNZaZI-11" value="Оператор&lt;div&gt;кол-центра&lt;/div&gt;" style="text;html=1;align=center;verticalAlign=middle;whiteSpace=wrap;rounded=0;" parent="1" vertex="1">
          <mxGeometry x="625" y="320" width="70" height="30" as="geometry" />
        </mxCell>
        <mxCell id="FcxPhR3n-TihV3jNZaZI-39" style="edgeStyle=orthogonalEdgeStyle;rounded=0;orthogonalLoop=1;jettySize=auto;html=1;entryX=0.25;entryY=0;entryDx=0;entryDy=0;" parent="1" source="FcxPhR3n-TihV3jNZaZI-12" target="FcxPhR3n-TihV3jNZaZI-1" edge="1">
          <mxGeometry relative="1" as="geometry">
            <Array as="points">
              <mxPoint x="170" y="470" />
              <mxPoint x="170" y="520" />
              <mxPoint x="345" y="520" />
            </Array>
          </mxGeometry>
        </mxCell>
        <mxCell id="FcxPhR3n-TihV3jNZaZI-12" value="" style="shape=actor;whiteSpace=wrap;html=1;" parent="1" vertex="1">
          <mxGeometry x="70" y="420" width="40" height="60" as="geometry" />
        </mxCell>
        <mxCell id="FcxPhR3n-TihV3jNZaZI-30" style="edgeStyle=orthogonalEdgeStyle;rounded=0;orthogonalLoop=1;jettySize=auto;html=1;entryX=0;entryY=0.5;entryDx=0;entryDy=0;exitX=0;exitY=0.75;exitDx=0;exitDy=0;" parent="1" source="FcxPhR3n-TihV3jNZaZI-12" target="FcxPhR3n-TihV3jNZaZI-29" edge="1">
          <mxGeometry relative="1" as="geometry">
            <Array as="points">
              <mxPoint x="50" y="465" />
              <mxPoint x="50" y="295" />
            </Array>
          </mxGeometry>
        </mxCell>
        <mxCell id="FcxPhR3n-TihV3jNZaZI-35" style="edgeStyle=orthogonalEdgeStyle;rounded=0;orthogonalLoop=1;jettySize=auto;html=1;" parent="1" source="FcxPhR3n-TihV3jNZaZI-13" target="izAX0C8F-F5LqZ6X57Kr-11" edge="1">
          <mxGeometry relative="1" as="geometry" />
        </mxCell>
        <mxCell id="FcxPhR3n-TihV3jNZaZI-13" value="Back-офис оператор" style="text;html=1;align=center;verticalAlign=middle;whiteSpace=wrap;rounded=0;" parent="1" vertex="1">
          <mxGeometry x="55" y="480" width="70" height="30" as="geometry" />
        </mxCell>
        <mxCell id="FcxPhR3n-TihV3jNZaZI-18" value="&lt;div&gt;Уточнение деталей депозита&lt;/div&gt;" style="text;html=1;align=center;verticalAlign=middle;whiteSpace=wrap;rounded=0;" parent="1" vertex="1">
          <mxGeometry x="570" y="170" width="70" height="40" as="geometry" />
        </mxCell>
        <mxCell id="FcxPhR3n-TihV3jNZaZI-19" value="Заявка на открытие депозита" style="text;html=1;align=center;verticalAlign=middle;whiteSpace=wrap;rounded=0;" parent="1" vertex="1">
          <mxGeometry x="200" y="190" width="70" height="40" as="geometry" />
        </mxCell>
        <mxCell id="FcxPhR3n-TihV3jNZaZI-25" style="edgeStyle=orthogonalEdgeStyle;rounded=0;orthogonalLoop=1;jettySize=auto;html=1;entryX=0.75;entryY=0;entryDx=0;entryDy=0;" parent="1" source="FcxPhR3n-TihV3jNZaZI-20" target="FcxPhR3n-TihV3jNZaZI-1" edge="1">
          <mxGeometry relative="1" as="geometry" />
        </mxCell>
        <mxCell id="FcxPhR3n-TihV3jNZaZI-20" value="&lt;div&gt;Система&lt;/div&gt;кол-центра" style="rounded=1;whiteSpace=wrap;html=1;" parent="1" vertex="1">
          <mxGeometry x="520" y="470" width="120" height="60" as="geometry" />
        </mxCell>
        <mxCell id="FcxPhR3n-TihV3jNZaZI-21" style="edgeStyle=orthogonalEdgeStyle;rounded=0;orthogonalLoop=1;jettySize=auto;html=1;entryX=0.454;entryY=0.029;entryDx=0;entryDy=0;entryPerimeter=0;" parent="1" source="FcxPhR3n-TihV3jNZaZI-11" target="FcxPhR3n-TihV3jNZaZI-20" edge="1">
          <mxGeometry relative="1" as="geometry" />
        </mxCell>
        <mxCell id="FcxPhR3n-TihV3jNZaZI-22" value="Заявка на расчет условий депозита" style="text;html=1;align=center;verticalAlign=middle;whiteSpace=wrap;rounded=0;" parent="1" vertex="1">
          <mxGeometry x="570" y="370" width="80" height="70" as="geometry" />
        </mxCell>
        <mxCell id="FcxPhR3n-TihV3jNZaZI-26" value="Email" style="rounded=0;whiteSpace=wrap;html=1;" parent="1" vertex="1">
          <mxGeometry x="245" y="440" width="60" height="30" as="geometry" />
        </mxCell>
        <mxCell id="FcxPhR3n-TihV3jNZaZI-28" value="Запрос расчета ставки депозита" style="text;html=1;align=center;verticalAlign=middle;whiteSpace=wrap;rounded=0;" parent="1" vertex="1">
          <mxGeometry x="270" y="370" width="60" height="60" as="geometry" />
        </mxCell>
        <mxCell id="FcxPhR3n-TihV3jNZaZI-29" value="Excel" style="rounded=0;whiteSpace=wrap;html=1;" parent="1" vertex="1">
          <mxGeometry x="90" y="280" width="60" height="30" as="geometry" />
        </mxCell>
        <mxCell id="FcxPhR3n-TihV3jNZaZI-31" value="Расчет ставки депозита" style="text;html=1;align=center;verticalAlign=middle;whiteSpace=wrap;rounded=0;" parent="1" vertex="1">
          <mxGeometry x="50" y="320" width="60" height="60" as="geometry" />
        </mxCell>
        <mxCell id="FcxPhR3n-TihV3jNZaZI-33" style="edgeStyle=orthogonalEdgeStyle;rounded=0;orthogonalLoop=1;jettySize=auto;html=1;" parent="1" source="FcxPhR3n-TihV3jNZaZI-12" target="FcxPhR3n-TihV3jNZaZI-26" edge="1">
          <mxGeometry relative="1" as="geometry">
            <Array as="points" />
          </mxGeometry>
        </mxCell>
        <mxCell id="FcxPhR3n-TihV3jNZaZI-34" value="&amp;nbsp;Ставка депозита" style="text;html=1;align=center;verticalAlign=middle;whiteSpace=wrap;rounded=0;" parent="1" vertex="1">
          <mxGeometry x="180" y="420" width="60" height="30" as="geometry" />
        </mxCell>
        <mxCell id="FcxPhR3n-TihV3jNZaZI-36" value="Запрос спец. ставки депозита" style="text;html=1;align=center;verticalAlign=middle;whiteSpace=wrap;rounded=0;" parent="1" vertex="1">
          <mxGeometry x="20" y="520" width="60" height="60" as="geometry" />
        </mxCell>
        <mxCell id="FcxPhR3n-TihV3jNZaZI-37" style="edgeStyle=orthogonalEdgeStyle;rounded=0;orthogonalLoop=1;jettySize=auto;html=1;" parent="1" source="FcxPhR3n-TihV3jNZaZI-8" edge="1">
          <mxGeometry relative="1" as="geometry">
            <mxPoint x="285" y="720" as="targetPoint" />
            <Array as="points">
              <mxPoint x="284" y="720" />
            </Array>
          </mxGeometry>
        </mxCell>
        <mxCell id="FcxPhR3n-TihV3jNZaZI-38" value="Анализ кредитных рисков" style="text;html=1;align=center;verticalAlign=middle;whiteSpace=wrap;rounded=0;" parent="1" vertex="1">
          <mxGeometry x="160" y="670" width="60" height="40" as="geometry" />
        </mxCell>
        <mxCell id="FcxPhR3n-TihV3jNZaZI-40" value="Обработка заявок" style="text;html=1;align=center;verticalAlign=middle;whiteSpace=wrap;rounded=0;" parent="1" vertex="1">
          <mxGeometry x="185" y="500" width="125" height="20" as="geometry" />
        </mxCell>
        <mxCell id="FcxPhR3n-TihV3jNZaZI-42" value="Открытие депозита" style="text;html=1;align=center;verticalAlign=middle;whiteSpace=wrap;rounded=0;" parent="1" vertex="1">
          <mxGeometry x="295" y="280" width="115" height="20" as="geometry" />
        </mxCell>
        <mxCell id="FcxPhR3n-TihV3jNZaZI-43" value="СМС-шлюз" style="rounded=1;whiteSpace=wrap;html=1;" parent="1" vertex="1">
          <mxGeometry x="690" y="470" width="120" height="60" as="geometry" />
        </mxCell>
        <mxCell id="FcxPhR3n-TihV3jNZaZI-45" style="edgeStyle=orthogonalEdgeStyle;rounded=0;orthogonalLoop=1;jettySize=auto;html=1;entryX=0.75;entryY=0.25;entryDx=0;entryDy=0;entryPerimeter=0;" parent="1" source="FcxPhR3n-TihV3jNZaZI-43" target="FcxPhR3n-TihV3jNZaZI-4" edge="1">
          <mxGeometry relative="1" as="geometry">
            <Array as="points">
              <mxPoint x="750" y="145" />
            </Array>
          </mxGeometry>
        </mxCell>
        <mxCell id="FcxPhR3n-TihV3jNZaZI-46" value="Оповещение клиента" style="text;html=1;align=center;verticalAlign=middle;whiteSpace=wrap;rounded=0;" parent="1" vertex="1">
          <mxGeometry x="540" y="670" width="160" height="20" as="geometry" />
        </mxCell>
        <mxCell id="izAX0C8F-F5LqZ6X57Kr-1" value="Сайт" style="rounded=1;whiteSpace=wrap;html=1;" vertex="1" parent="1">
          <mxGeometry x="460" y="30" width="120" height="60" as="geometry" />
        </mxCell>
        <mxCell id="izAX0C8F-F5LqZ6X57Kr-5" value="Интернет-банк" style="rounded=1;whiteSpace=wrap;html=1;" vertex="1" parent="1">
          <mxGeometry x="450" y="280" width="120" height="60" as="geometry" />
        </mxCell>
        <mxCell id="izAX0C8F-F5LqZ6X57Kr-6" style="edgeStyle=orthogonalEdgeStyle;rounded=0;orthogonalLoop=1;jettySize=auto;html=1;entryX=0.5;entryY=0;entryDx=0;entryDy=0;" edge="1" parent="1" source="FcxPhR3n-TihV3jNZaZI-5" target="izAX0C8F-F5LqZ6X57Kr-5">
          <mxGeometry relative="1" as="geometry">
            <Array as="points">
              <mxPoint x="510" y="190" />
            </Array>
          </mxGeometry>
        </mxCell>
        <mxCell id="izAX0C8F-F5LqZ6X57Kr-8" value="&lt;div&gt;Проведение платежей и открытие карт&lt;/div&gt;" style="text;html=1;align=center;verticalAlign=middle;whiteSpace=wrap;rounded=0;" vertex="1" parent="1">
          <mxGeometry x="430" y="220" width="70" height="40" as="geometry" />
        </mxCell>
        <mxCell id="izAX0C8F-F5LqZ6X57Kr-9" style="edgeStyle=orthogonalEdgeStyle;rounded=0;orthogonalLoop=1;jettySize=auto;html=1;entryX=0.626;entryY=0.002;entryDx=0;entryDy=0;entryPerimeter=0;" edge="1" parent="1" source="izAX0C8F-F5LqZ6X57Kr-5" target="FcxPhR3n-TihV3jNZaZI-1">
          <mxGeometry relative="1" as="geometry" />
        </mxCell>
        <mxCell id="izAX0C8F-F5LqZ6X57Kr-11" value="Email" style="rounded=0;whiteSpace=wrap;html=1;" vertex="1" parent="1">
          <mxGeometry x="60" y="585" width="60" height="30" as="geometry" />
        </mxCell>
      </root>
    </mxGraphModel>
  </diagram>
</mxfile>
